<svg xmlns="http://www.w3.org/2000/svg" xmlns:xlink="http://www.w3.org/1999/xlink" version="1.1" width="611" height="536" viewBox="-0.5 -0.5 611 536" style="background-color: rgb(255, 255, 255);"><defs/><g><path d="M 330 43 L 330 63 L 330 53 L 330 66.63" fill="none" stroke="#000000" stroke-miterlimit="10" pointer-events="stroke"/><path d="M 330 71.88 L 326.5 64.88 L 330 66.63 L 333.5 64.88 Z" fill="#000000" stroke="#000000" stroke-miterlimit="10" pointer-events="all"/><rect x="280" y="3" width="100" height="40" rx="6" ry="6" fill="#d5e8d4" stroke="#82b366" pointer-events="all"/><g transform="translate(-0.5 -0.5)"><text x="330" y="27" fill="#000000" font-family="Helvetica" font-size="12px" text-anchor="middle">请求开始</text></g><path d="M 280 93 L 200 93 L 200 226.63" fill="none" stroke="#000000" stroke-miterlimit="10" pointer-events="stroke"/><path d="M 200 231.88 L 196.5 224.88 L 200 226.63 L 203.5 224.88 Z" fill="#000000" stroke="#000000" stroke-miterlimit="10" pointer-events="all"/><path d="M 380 93 L 530 93 L 530 116.63" fill="none" stroke="#000000" stroke-miterlimit="10" pointer-events="stroke"/><path d="M 530 121.88 L 526.5 114.88 L 530 116.63 L 533.5 114.88 Z" fill="#000000" stroke="#000000" stroke-miterlimit="10" pointer-events="all"/><rect x="280" y="73" width="100" height="40" fill="#ffffff" stroke="#000000" pointer-events="all"/><g transform="translate(-0.5 -0.5)"><text x="330" y="97" fill="#000000" font-family="Helvetica" font-size="12px" text-anchor="middle">浏览器有缓存？</text></g><path d="M 200 273 L 200 293 L 100 293 L 100 306.63" fill="none" stroke="#000000" stroke-miterlimit="10" pointer-events="stroke"/><path d="M 100 311.88 L 96.5 304.88 L 100 306.63 L 103.5 304.88 Z" fill="#000000" stroke="#000000" stroke-miterlimit="10" pointer-events="all"/><path d="M 240 253 L 330 253 L 330 296.63" fill="none" stroke="#000000" stroke-miterlimit="10" pointer-events="stroke"/><path d="M 330 301.88 L 326.5 294.88 L 330 296.63 L 333.5 294.88 Z" fill="#000000" stroke="#000000" stroke-miterlimit="10" pointer-events="all"/><g transform="translate(-0.5 -0.5)"><text x="280" y="259" fill="#000000" font-family="Helvetica" font-size="11px" text-anchor="middle">stale</text></g><rect x="160" y="233" width="80" height="40" fill="#ffffff" stroke="#000000" pointer-events="all"/><g transform="translate(-0.5 -0.5)"><text x="200" y="257" fill="#000000" font-family="Helvetica" font-size="12px" text-anchor="middle">缓存状态 fresh/stale?</text></g><rect x="214" y="93" width="40" height="20" fill="none" stroke="none" pointer-events="all"/><g transform="translate(-0.5 -0.5)"><text x="234" y="107" fill="#000000" font-family="Helvetica" font-size="12px" text-anchor="middle">Yes</text></g><rect x="40" y="313" width="120" height="40" rx="6" ry="6" fill="#d5e8d4" stroke="#82b366" pointer-events="all"/><g transform="translate(-0.5 -0.5)"><text x="100" y="337" fill="#000000" font-family="Helvetica" font-size="12px" text-anchor="middle">返回缓存的内容</text></g><rect x="110" y="273" width="40" height="20" fill="none" stroke="none" pointer-events="all"/><g transform="translate(-0.5 -0.5)"><text x="130" y="287" fill="#000000" font-family="Helvetica" font-size="12px" text-anchor="middle">fresh</text></g><path d="M 330 343 L 330 373 L 210 373 L 210 406.63" fill="none" stroke="#000000" stroke-miterlimit="10" pointer-events="stroke"/><path d="M 210 411.88 L 206.5 404.88 L 210 406.63 L 213.5 404.88 Z" fill="#000000" stroke="#000000" stroke-miterlimit="10" pointer-events="all"/><g transform="translate(-0.5 -0.5)"><text x="248" y="377" fill="#000000" font-family="Helvetica" font-size="11px" text-anchor="middle">304 Not Modified</text></g><path d="M 330 343 L 330 373 L 460 373 L 460 406.63" fill="none" stroke="#000000" stroke-miterlimit="10" pointer-events="stroke"/><path d="M 460 411.88 L 456.5 404.88 L 460 406.63 L 463.5 404.88 Z" fill="#000000" stroke="#000000" stroke-miterlimit="10" pointer-events="all"/><g transform="translate(-0.5 -0.5)"><text x="370" y="375" fill="#000000" font-family="Helvetica" font-size="11px" text-anchor="middle">200 OK</text></g><rect x="280" y="303" width="100" height="40" fill="#dae8fc" stroke="#6c8ebf" pointer-events="all"/><g transform="translate(-0.5 -0.5)"><text x="330" y="327" fill="#000000" font-family="Helvetica" font-size="12px" text-anchor="middle">向服务端发起&#xa;「条件请求」</text></g><path d="M 420 453 L 420 486.63" fill="none" stroke="#000000" stroke-miterlimit="10" pointer-events="stroke"/><path d="M 420 491.88 L 416.5 484.88 L 420 486.63 L 423.5 484.88 Z" fill="#000000" stroke="#000000" stroke-miterlimit="10" pointer-events="all"/><rect x="360" y="413" width="120" height="40" rx="6" ry="6" fill="#d5e8d4" stroke="#82b366" pointer-events="all"/><g transform="translate(-0.5 -0.5)"><text x="420" y="437" fill="#000000" font-family="Helvetica" font-size="12px" text-anchor="middle">返回新响应内容</text></g><path d="M 480 513 L 600 513 L 600 53 L 380 53 L 380 66.63" fill="none" stroke="#000000" stroke-miterlimit="10" stroke-dasharray="3 3" pointer-events="stroke"/><path d="M 380 71.88 L 376.5 64.88 L 380 66.63 L 383.5 64.88 Z" fill="#000000" stroke="#000000" stroke-miterlimit="10" pointer-events="all"/><rect x="360" y="493" width="120" height="40" fill="#f5f5f5" stroke="#666666" pointer-events="all"/><g transform="translate(-0.5 -0.5)"><text x="420" y="517" fill="#333333" font-family="Helvetica" font-size="12px" text-anchor="middle">重新保存缓存</text></g><path d="M 234 453 L 234 486.63" fill="none" stroke="#000000" stroke-miterlimit="10" pointer-events="stroke"/><path d="M 234 491.88 L 230.5 484.88 L 234 486.63 L 237.5 484.88 Z" fill="#000000" stroke="#000000" stroke-miterlimit="10" pointer-events="all"/><rect x="174" y="413" width="120" height="40" rx="6" ry="6" fill="#d5e8d4" stroke="#82b366" pointer-events="all"/><g transform="translate(-0.5 -0.5)"><text x="234" y="437" fill="#000000" font-family="Helvetica" font-size="12px" text-anchor="middle">返回缓存中的内容</text></g><path d="M 174 513 L 10 513 L 10 53 L 305 53 L 305 66.63" fill="none" stroke="#000000" stroke-miterlimit="10" stroke-dasharray="3 3" pointer-events="stroke"/><path d="M 305 71.88 L 301.5 64.88 L 305 66.63 L 308.5 64.88 Z" fill="#000000" stroke="#000000" stroke-miterlimit="10" pointer-events="all"/><rect x="174" y="493" width="120" height="40" fill="#f5f5f5" stroke="#666666" pointer-events="all"/><g transform="translate(-0.5 -0.5)"><text x="234" y="517" fill="#333333" font-family="Helvetica" font-size="12px" text-anchor="middle">更新缓存有效期</text></g><path d="M 530 163 L 530 196.63" fill="none" stroke="#000000" stroke-miterlimit="10" pointer-events="stroke"/><path d="M 530 201.88 L 526.5 194.88 L 530 196.63 L 533.5 194.88 Z" fill="#000000" stroke="#000000" stroke-miterlimit="10" pointer-events="all"/><rect x="480" y="123" width="100" height="40" fill="#dae8fc" stroke="#6c8ebf" pointer-events="all"/><g transform="translate(-0.5 -0.5)"><text x="530" y="147" fill="#000000" font-family="Helvetica" font-size="12px" text-anchor="middle">向服务端发起&#xa;「新请求」</text></g><rect x="405" y="93" width="30" height="20" fill="none" stroke="none" pointer-events="all"/><g transform="translate(-0.5 -0.5)"><text x="420" y="107" fill="#000000" font-family="Helvetica" font-size="12px" text-anchor="middle">No</text></g><path d="M 480 293 L 355 293 L 355 119.37" fill="none" stroke="#000000" stroke-miterlimit="10" stroke-dasharray="3 3" pointer-events="stroke"/><path d="M 355 114.12 L 358.5 121.12 L 355 119.37 L 351.5 121.12 Z" fill="#000000" stroke="#000000" stroke-miterlimit="10" pointer-events="all"/><rect x="480" y="273" width="100" height="40" fill="#f5f5f5" stroke="#666666" pointer-events="all"/><g transform="translate(-0.5 -0.5)"><text x="530" y="297" fill="#333333" font-family="Helvetica" font-size="12px" text-anchor="middle">保存缓存</text></g><path d="M 530 243 L 530 263 L 530 253 L 530 266.63" fill="none" stroke="#000000" stroke-miterlimit="10" pointer-events="stroke"/><path d="M 530 271.88 L 526.5 264.88 L 530 266.63 L 533.5 264.88 Z" fill="#000000" stroke="#000000" stroke-miterlimit="10" pointer-events="all"/><rect x="480" y="203" width="100" height="40" rx="6" ry="6" fill="#d5e8d4" stroke="#82b366" pointer-events="all"/><g transform="translate(-0.5 -0.5)"><text x="530" y="227" fill="#000000" font-family="Helvetica" font-size="12px" text-anchor="middle">返回响应内容</text></g></g><text text-anchor="middle" font-size="10px" x="50%" y="100%">Viewer does not support full SVG 1.1</text></svg>
